<?xml version="1.0"?>
<svg version="1.1" xmlns="http://www.w3.org/2000/svg" width="800px" height="350px" style=""><path fill="#9e1b9e" d="M8.0419921875,314.3505859375l2.7685546875-3.2958984375q-0.52734375-22.1484375-1.1865234375-44.1650390625t-0.6591796875-43.76953125q0-27.0263671875,3.22998046875-52.27294921875t6.39404296875-51.74560546875q0.263671875-1.58203125,1.51611328125-2.57080078125t3.09814453125-1.64794921875t3.75732421875-0.9228515625t3.49365234375-0.263671875q2.109375,0,5.2734375,0.791015625t6.328125,4.6142578125q0,1.318359375,0.19775390625,2.30712890625t0.19775390625,2.30712890625q0,10.01953125-2.70263671875,21.4892578125t-3.62548828125,22.0166015625q-1.0546875,12.919921875-1.4501953125,25.576171875t-0.3955078125,25.7080078125l0.263671875,11.6015625q2.63671875-3.2958984375,7.5146484375-8.4375t10.546875-9.95361328125t11.337890625-8.23974609375t10.283203125-3.427734375q6.9873046875,0,9.68994140625,3.955078125t2.70263671875,10.4150390625q0,5.9326171875-2.57080078125,12.392578125t-6.7236328125,12.59033203125t-9.42626953125,11.00830078125t-10.4150390625,7.2509765625q6.9873046875,8.701171875,14.30419921875,16.611328125t16.01806640625,14.8974609375l0,3.0322265625q-0.263671875,1.318359375-1.64794921875,1.9775390625t-3.0322265625,1.0546875t-3.22998046875,0.59326171875t-2.63671875,0.19775390625q-6.4599609375,0-12.45849609375-3.8232421875t-11.2060546875-9.3603515625t-9.82177734375-11.7333984375t-8.4375-10.810546875q0.791015625,15.1611328125,1.77978515625,30.25634765625t0.98876953125,30.25634765625q0,1.845703125-1.64794921875,3.09814453125t-3.8232421875,1.91162109375t-4.41650390625,0.9228515625t-3.69140625,0.263671875q-7.7783203125,0-11.00830078125-2.83447265625t-5.47119140625-9.82177734375z M35.068359375,252.255859375q3.2958984375,0,7.84423828125-2.83447265625t9.42626953125-7.05322265625t9.0966796875-8.89892578125t6.78955078125-8.89892578125t2.57080078125-6.78955078125t-3.5595703125-2.30712890625q-1.318359375,0-5.4052734375,3.8232421875t-9.0966796875,9.3603515625t-10.01953125,11.9970703125t-7.646484375,11.6015625z M112.14887695312,263.330078125q0-7.5146484375,1.91162109375-15.49072265625t6.064453125-14.3701171875t10.48095703125-10.4150390625t15.29296875-4.02099609375q6.7236328125,0,14.17236328125,2.30712890625t13.64501953125,6.591796875t10.08544921875,10.48095703125t3.88916015625,13.8427734375q0,9.228515625-3.36181640625,17.5341796875t-9.42626953125,14.83154296875t-14.17236328125,10.283203125t-17.60009765625,3.75732421875q-7.7783203125,0-13.5791015625-2.83447265625t-9.68994140625-7.58056640625t-5.80078125-11.2060546875t-1.91162109375-13.7109375z M131.52875976563,263.06640625q0,2.373046875,0.72509765625,6.9873046875t2.17529296875,9.03076171875t3.75732421875,7.646484375t5.60302734375,2.96630859375q6.9873046875-0.791015625,11.53564453125-4.54833984375t7.3828125-9.16259765625t3.955078125-11.7333984375t1.12060546875-11.9970703125q0-7.2509765625-2.83447265625-12.12890625t-9.29443359375-7.91015625q0,0.263671875,0.263671875,0.263671875t0.263671875-0.263671875l-3.2958984375-0.791015625q-1.318359375-0.52734375-3.22998046875-1.1865234375t-3.75732421875-2.900390625q-5.1416015625,1.845703125-7.97607421875,4.74609375t-4.28466796875,7.05322265625t-1.77978515625,9.95361328125t-0.32958984375,13.974609375z M212.03701171875,223.9111328125q0-5.4052734375,1.91162109375-9.0966796875t8.10791015625-3.69140625q2.373046875,0,5.9326171875,0.72509765625t4.0869140625,3.62548828125q1.318359375,7.7783203125,1.4501953125,16.875t0.9228515625,17.138671875q3.0322265625-5.9326171875,7.7783203125-12.7880859375t10.810546875-12.65625t13.18359375-9.6240234375t14.501953125-3.8232421875q0.52734375,0,1.9775390625,0.3955078125t2.70263671875,1.12060546875t1.51611328125,1.64794921875t-1.4501953125,1.7138671875q-0.52734375,1.58203125-2.2412109375,1.91162109375t-3.0322265625,0.32958984375q-0.791015625,0-2.5048828125-0.6591796875q-9.755859375,5.1416015625-16.611328125,13.974609375t-11.2060546875,19.57763671875t-6.328125,22.67578125t-1.9775390625,23.26904296875q0,5.6689453125-2.57080078125,6.85546875t-8.23974609375,1.1865234375q-3.0322265625,0-6.39404296875-0.6591796875t-4.68017578125-4.21875q-2.373046875-7.5146484375-3.88916015625-17.2705078125t-2.30712890625-20.10498046875t-1.12060546875-20.36865234375t-0.32958984375-18.0615234375z M305.72885742187,266.23046875q0-9.228515625,2.04345703125-21.7529296875t6.92138671875-23.73046875t12.85400390625-19.05029296875t20.10498046875-7.84423828125q11.337890625,0,17.0068359375,6.52587890625t5.6689453125,17.60009765625q0,7.2509765625-2.70263671875,15.88623046875t-7.71240234375,16.34765625t-11.865234375,12.85400390625t-15.29296875,5.1416015625l-3.427734375-0.263671875q0,3.5595703125,1.0546875,9.55810546875t3.09814453125,11.93115234375t5.2734375,10.4150390625t7.84423828125,4.482421875q6.7236328125,0,12.919921875-5.4052734375t11.7333984375-11.9970703125t10.283203125-11.9970703125t8.701171875-5.4052734375q2.109375,0,4.3505859375,0.6591796875t2.5048828125,3.69140625q0,1.845703125-0.98876953125,3.0322265625t-1.77978515625,2.63671875q-4.0869140625,6.9873046875-8.89892578125,13.3154296875t-10.87646484375,11.4697265625t-13.24951171875,8.10791015625t-15.88623046875,2.96630859375q-11.337890625,0-18.8525390625-4.02099609375t-12.12890625-10.810546875t-6.65771484375-15.6884765625t-2.04345703125-18.65478515625z M329.32749023437,256.2109375l3.69140625,3.2958984375q2.63671875,2.373046875,5.2734375,1.0546875t4.74609375-4.81201171875t3.88916015625-8.63525390625t3.1640625-10.546875t2.04345703125-10.546875t0.6591796875-8.5693359375l0-4.482421875t-0.3955078125-4.74609375t-1.38427734375-3.75732421875t-3.09814453125-1.91162109375q-0.6591796875-0.1318359375-1.1865234375-0.1318359375q-4.482421875,0-7.646484375,5.6689453125q-3.427734375,6.328125-5.537109375,15.35888671875t-3.0322265625,18.52294921875t-1.1865234375,14.23828125z M415.9001953125,260.8251953125q0-8.96484375,2.43896484375-17.2705078125t7.31689453125-14.83154296875t12.19482421875-10.4150390625t16.94091796875-3.88916015625q5.9326171875,0,13.11767578125,1.77978515625t13.51318359375,5.2734375t10.546875,8.89892578125t4.21875,12.392578125q0,3.2958984375-1.12060546875,5.009765625t-4.54833984375,1.7138671875l-1.4501953125-0.263671875q3.8232421875,10.283203125,6.591796875,21.09375t5.4052734375,21.62109375q1.0546875,2.109375,1.58203125,3.75732421875t0.52734375,3.22998046875q0,2.109375-1.1865234375,3.49365234375t-3.09814453125,2.04345703125t-3.955078125,0.9228515625t-3.62548828125,0.263671875q-5.6689453125,0-8.50341796875-1.9775390625t-4.0869140625-5.4052734375t-1.51611328125-7.71240234375t-1.0546875-8.63525390625q-1.58203125,5.1416015625-4.15283203125,10.01953125t-6.064453125,8.76708984375t-8.23974609375,6.1962890625t-10.6787109375,2.30712890625q-8.701171875,0-14.6337890625-5.009765625t-9.55810546875-12.32666015625t-5.2734375-15.62255859375t-1.64794921875-15.4248046875z M434.6208984375,258.9794921875q0,4.8779296875,0.6591796875,10.283203125t2.17529296875,10.6787109375t3.88916015625,9.95361328125t5.9326171875,8.23974609375q6.4599609375-6.9873046875,9.55810546875-17.0068359375t5.537109375-19.31396484375t5.537109375-15.9521484375t9.55810546875-6.65771484375q4.0869140625,0,6.85546875,1.4501953125q-1.318359375-3.2958984375-4.3505859375-6.39404296875t-6.78955078125-5.6689453125t-7.7783203125-4.21875t-7.58056640625-1.64794921875q-1.0546875,0-2.43896484375,0.32958984375t-2.17529296875,0.06591796875q-5.4052734375,1.58203125-8.89892578125,5.47119140625t-5.6689453125,9.16259765625t-3.09814453125,10.810546875t-0.9228515625,10.4150390625z"/><path fill="#" d=""/></svg>
